<svg xmlns="http://www.w3.org/2000/svg" width="200" height="200" style="fill: blue; stroke: none;">
    <rect x="0" y="0" height="200" width="200" fill="#41A5EE"></rect>
    <path transform="translate(-40,0),scale(0.8,0.5)" fill="#2B7CD3" d="M 0 65
        A 25 25 0 0 0 100 65
        A 25 25 0 0 0 200 65
        A 25 25 0 0 0 300 65
        A 25 25 0 0 0 400 65
        L 400 400
        L 0 400
        L 0 100"/>

    <path transform="translate(-60,50),scale(0.8,0.5)" fill="#185ABD" d="M 0 65
        A 25 25 0 0 0 100 65
        A 25 25 0 0 0 200 65
        A 25 25 0 0 0 300 65
        A 25 25 0 0 0 400 65
        L 400 400
        L 0 400
        L 0 100"/>
    <path transform="translate(-80,100),scale(0.8,0.5)" fill="#103F91" d="M 0 65
        A 25 25 0 0 0 100 65
        A 25 25 0 0 0 200 65
        A 25 25 0 0 0 300 65
        A 25 25 0 0 0 400 65
        L 400 400
        L 0 400
        L 0 100"/>
</svg>
