<svg xmlns="http://www.w3.org/2000/svg" width="200" height="200" style="fill: blue; stroke: none;">

    <rect x="0" y="0" height="200" width="200" fill="#C5CAE9"></rect>
    <path transform="translate(-50,0),scale(0.8,0.5)" fill="#7986CB" d="M 0 100
        A 30 30 0 0 1 50 100
        A 30 30 0 0 0 100 100
        A 30 30 0 0 1 150 100
        A 30 30 0 0 0 200 100
        A 30 30 0 0 1 250 100
        A 30 30 0 0 0 300 100
        A 30 30 0 0 1 350 100
        A 30 30 0 0 0 400 100
        L 300 300
        L 0 300
        L 0 100"/>

    <path transform="translate(0,50),scale(0.8,0.5)" fill="#3F51B5" d="M 0 100
        A 30 30 0 0 1 50 100
        A 30 30 0 0 0 100 100
        A 30 30 0 0 1 150 100
        A 30 30 0 0 0 200 100
        A 30 30 0 0 1 250 100
        A 30 30 0 0 0 300 100
        L 300 300
        L 0 300
        L 0 100"/>
    <path transform="translate(-20,100),scale(0.8,0.5)" fill="#303F9F" d="M 0 100
        A 30 30 0 0 1 50 100
        A 30 30 0 0 0 100 100
        A 30 30 0 0 1 150 100
        A 30 30 0 0 0 200 100
        A 30 30 0 0 1 250 100
        A 30 30 0 0 0 300 100
        L 300 300
        L 0 300
        L 0 100"/>
</svg>
